<?xml version="1.0" standalone="no"?>
<!DOCTYPE svg PUBLIC "-//W3C//DTD SVG 20010904//EN"
 "http://www.w3.org/TR/2001/REC-SVG-20010904/DTD/svg10.dtd">
<svg version="1.0" xmlns="http://www.w3.org/2000/svg"
 width="512.000000pt" height="512.000000pt" viewBox="0 0 512.000000 512.000000"
 preserveAspectRatio="xMidYMid meet">

<g transform="translate(0.000000,512.000000) scale(0.100000,-0.100000)"
fill="#000000" stroke="none">
<path d="M2370 4269 c-381 -43 -751 -222 -1024 -495 -349 -348 -541 -858 -498
-1322 55 -576 307 -1025 739 -1315 442 -295 1042 -369 1557 -190 654 226 1058
767 1128 1510 40 425 -126 906 -430 1247 -370 413 -926 627 -1472 565z m505
-269 c524 -112 915 -458 1079 -955 55 -166 79 -315 80 -495 0 -183 -14 -277
-66 -440 -146 -456 -502 -812 -958 -958 -165 -53 -256 -66 -450 -66 -127 0
-200 5 -265 18 -614 122 -1069 576 -1191 1191 -29 142 -25 384 9 545 32 152
65 256 122 377 137 293 360 518 650 658 158 77 270 112 444 140 127 21 415 13
546 -15z"/>
<path d="M2390 3597 c-102 -31 -162 -68 -246 -151 -110 -109 -173 -255 -174
-398 0 -50 4 -62 31 -92 37 -43 81 -54 132 -33 49 21 67 54 78 139 12 96 47
165 114 227 70 63 142 91 235 91 136 0 257 -76 317 -199 25 -49 28 -68 28
-151 0 -89 -2 -99 -34 -158 -61 -112 -155 -174 -291 -191 -62 -8 -78 -14 -104
-40 l-31 -31 0 -220 0 -220 33 -32 c28 -28 39 -33 82 -33 43 0 54 5 82 33 l33
32 5 141 5 140 66 22 c280 94 442 378 385 672 -22 112 -80 226 -155 302 -112
115 -226 163 -401 169 -99 4 -125 1 -190 -19z"/>
<path d="M2510 1783 c-95 -49 -83 -183 20 -214 53 -16 107 10 134 65 17 36 18
43 5 79 -25 71 -96 102 -159 70z"/>
</g>
</svg>
