<?xml version="1.0" standalone="no"?>
<!DOCTYPE svg PUBLIC "-//W3C//DTD SVG 20010904//EN"
 "http://www.w3.org/TR/2001/REC-SVG-20010904/DTD/svg10.dtd">
<svg version="1.0" xmlns="http://www.w3.org/2000/svg"
 width="512.000000pt" height="512.000000pt" viewBox="0 0 512.000000 512.000000"
 preserveAspectRatio="xMidYMid meet">

<g transform="translate(0.000000,512.000000) scale(0.100000,-0.100000)"
fill="#000000" stroke="none">
<path d="M2330 5110 c-494 -48 -950 -230 -1350 -538 -195 -150 -448 -432 -594
-662 -63 -99 -186 -351 -230 -471 -49 -134 -102 -340 -128 -499 -31 -195 -31
-565 0 -760 45 -276 116 -498 237 -745 132 -269 269 -460 489 -681 221 -220
412 -357 681 -489 247 -121 469 -192 745 -237 195 -31 565 -31 760 0 276 45
498 116 745 237 269 132 460 269 681 489 220 221 357 412 489 681 88 179 132
296 180 476 63 240 78 371 78 649 0 278 -15 409 -78 649 -48 180 -92 297 -180
476 -132 269 -269 460 -489 681 -221 220 -412 357 -681 489 -246 121 -474 193
-740 235 -147 23 -475 34 -615 20z m490 -211 c432 -45 877 -231 1225 -514 119
-97 302 -286 392 -406 248 -331 404 -712 459 -1124 19 -143 19 -447 0 -590
-59 -439 -235 -850 -511 -1190 -97 -119 -286 -302 -406 -392 -331 -248 -712
-404 -1124 -459 -143 -19 -447 -19 -590 0 -412 55 -793 211 -1124 459 -120 90
-309 273 -406 392 -276 340 -452 751 -511 1190 -19 143 -19 447 0 590 34 256
107 501 215 721 122 251 243 424 431 617 202 209 391 347 651 477 405 201 837
277 1299 229z"/>
<path d="M2446 3865 c-118 -48 -189 -153 -189 -279 0 -96 29 -161 99 -225 62
-57 123 -81 204 -81 81 0 142 24 204 81 70 64 99 129 99 225 0 58 -5 83 -27
127 -72 148 -241 214 -390 152z"/>
<path d="M2198 3053 c-29 -18 -48 -52 -48 -84 0 -35 27 -72 119 -164 l91 -90
0 -564 0 -564 -94 -96 c-51 -53 -99 -106 -105 -118 -20 -39 -13 -73 23 -109
l34 -34 340 0 340 0 31 26 c38 31 49 80 28 120 -9 16 -56 69 -106 119 l-91 90
0 713 0 714 -29 29 -29 29 -239 0 c-204 0 -242 -3 -265 -17z"/>
</g>
</svg>
